<svg width="20" height="21" viewBox="0 0 20 21" fill="#000" xmlns="http://www.w3.org/2000/svg">
    <g clip-path="url(#clip0_24_203)">
        <path d="M13.2255 11.8496C13.2255 13.6282 11.7786 15.0751 10 15.0751C8.22137 15.0751 6.77503 13.6282 6.77503 11.8496C6.77503 10.071 8.22137 8.62408 10 8.62408C11.7786 8.62408 13.2255 10.0715 13.2255 11.8496ZM20 7.26951V16.4308C20 17.0173 19.767 17.5798 19.3523 17.9946C18.9375 18.4093 18.375 18.6423 17.7885 18.6423H2.21153C1.625 18.6423 1.06249 18.4093 0.647743 17.9946C0.233 17.5798 0 17.0173 0 16.4308V7.26951C0 6.68298 0.233 6.12047 0.647743 5.70572C1.06249 5.29098 1.625 5.05798 2.21153 5.05798H4.93172V4.29279C4.93172 3.77957 5.13559 3.28737 5.49849 2.92447C5.86139 2.56157 6.35359 2.3577 6.86681 2.3577H13.1332C13.6464 2.3577 14.1386 2.56157 14.5015 2.92447C14.8644 3.28737 15.0683 3.77957 15.0683 4.29279V5.05743H17.7885C19.0098 5.05798 20 6.04819 20 7.26951ZM14.8842 11.8496C14.8842 9.1565 12.6931 6.96543 10 6.96543C7.30746 6.96543 5.11638 9.1565 5.11638 11.8496C5.11638 14.5427 7.30746 16.7338 10 16.7338C12.6931 16.7338 14.8842 14.5427 14.8842 11.8496Z" fill="current"/>
    </g>
    <defs>
        <clipPath id="clip0_24_203">
            <rect width="20" height="20" fill="current" transform="translate(0 0.5)"/>
        </clipPath>
    </defs>
</svg>